<?xml version="1.0" standalone="no"?>
<!DOCTYPE svg PUBLIC "-//W3C//DTD SVG 20010904//EN"
 "http://www.w3.org/TR/2001/REC-SVG-20010904/DTD/svg10.dtd">
<svg version="1.0" xmlns="http://www.w3.org/2000/svg"
 width="32.000000pt" height="32.000000pt" viewBox="0 0 32.000000 32.000000"
 preserveAspectRatio="xMidYMid meet">

<g transform="translate(0.000000,32.000000) scale(0.100000,-0.100000)"
fill="#000000" stroke="none">
<path d="M85 302 c-17 -11 -43 -35 -58 -55 -27 -35 -27 -37 -11 -63 11 -17 24
-24 36 -21 14 4 18 0 18 -18 0 -13 -7 -28 -16 -33 -15 -8 -15 -10 0 -15 10 -4
16 -18 16 -39 0 -57 5 -59 131 -56 l114 3 0 55 c0 55 0 55 -32 58 -27 3 -33 8
-33 27 0 18 4 22 18 18 12 -3 25 4 36 22 17 25 16 27 -15 66 -17 22 -44 46
-60 54 -39 21 -108 19 -144 -3z m108 -19 l32 17 -24 -20 c-29 -25 -53 -25 -82
0 l-24 20 33 -17 c31 -17 33 -17 65 0z m-143 -105 c0 -6 -7 -5 -15 2 -8 7 -15
17 -15 22 0 6 7 5 15 -2 8 -7 15 -17 15 -22z m240 7 c-7 -9 -15 -13 -18 -10
-3 2 1 11 8 20 7 9 15 13 18 10 3 -2 -1 -11 -8 -20z m-140 -5 c0 -5 -4 -10
-10 -10 -5 0 -10 5 -10 10 0 6 5 10 10 10 6 0 10 -4 10 -10z m-60 -70 c0 -5
-4 -10 -10 -10 -5 0 -10 5 -10 10 0 6 5 10 10 10 6 0 10 -4 10 -10z m205 -10
c4 -6 -20 -10 -64 -10 -41 0 -71 4 -71 10 0 6 28 10 64 10 36 0 68 -4 71 -10z
m5 -40 c0 -6 -30 -10 -70 -10 -40 0 -70 4 -70 10 0 6 30 10 70 10 40 0 70 -4
70 -10z m-160 -40 c0 -5 -11 -10 -25 -10 -14 0 -25 5 -25 10 0 6 11 10 25 10
14 0 25 -4 25 -10z"/>
</g>
</svg>
